[RUN] math
[OK] math
[RUN] property
[OK] property
[RUN] expression
[OK] expression
[RUN] asset_resolution
[OK] asset_resolution
[RUN] image_manager
[OK] image_manager
[RUN] image_decode
[OK] image_decode
[RUN] framebuffer
[OK] framebuffer
[RUN] rasterizer
[OK] rasterizer
[RUN] surface
[OK] surface
[RUN] draw_list_builder
[OK] draw_list_builder
[RUN] blend_modes
[OK] blend_modes
[RUN] evaluated_composition_renderer
[OK] evaluated_composition_renderer
[RUN] path_rasterizer
[OK] path_rasterizer
[RUN] path_rasterizer_aa
[OK] path_rasterizer_aa
[RUN] frame_cache
[OK] frame_cache
[RUN] frame_executor
[OK] frame_executor
[RUN] frame_output_sink
ffmpeg version N-117753-g9ec042c1aa-20241111 Copyright (c) 2000-2024 the FFmpeg developers
  built with gcc 14.2.0 (crosstool-NG 1.26.0.120_4d36f27)
  configuration: --prefix=/ffbuild/prefix --pkg-config-flags=--static --pkg-config=pkg-config --cross-prefix=x86_64-w64-mingw32- --arch=x86_64 --target-os=mingw32 --enable-gpl --enable-version3 --disable-debug --disable-w32threads --enable-pthreads --enable-iconv --enable-zlib --enable-libfreetype --enable-libfribidi --enable-gmp --enable-libxml2 --enable-lzma --enable-fontconfig --enable-libharfbuzz --enable-libvorbis --enable-opencl --disable-libpulse --enable-libvmaf --disable-libxcb --disable-xlib --enable-amf --enable-libaom --enable-libaribb24 --enable-avisynth --enable-chromaprint --enable-libdav1d --enable-libdavs2 --enable-libdvdread --enable-libdvdnav --disable-libfdk-aac --enable-ffnvcodec --enable-cuda-llvm --enable-frei0r --enable-libgme --enable-libkvazaar --enable-libaribcaption --enable-libass --enable-libbluray --enable-libjxl --enable-libmp3lame --enable-libopus --enable-librist --enable-libssh --enable-libtheora --enable-libvpx --enable-libwebp --enable-libzmq --enable-lv2 --enable-libvpl --enable-openal --enable-libopencore-amrnb --enable-libopencore-amrwb --enable-libopenh264 --enable-libopenjpeg --enable-libopenmpt --enable-librav1e --enable-librubberband --enable-schannel --enable-sdl2 --enable-libsoxr --enable-libsrt --enable-libsvtav1 --enable-libtwolame --enable-libuavs3d --disable-libdrm --enable-vaapi --enable-libvidstab --enable-vulkan --enable-libshaderc --enable-libplacebo --enable-libvvenc --enable-libx264 --enable-libx265 --enable-libxavs2 --enable-libxvid --enable-libzimg --enable-libzvbi --extra-cflags=-DLIBTWOLAME_STATIC --extra-cxxflags= --extra-libs=-lgomp --extra-ldflags=-pthread --extra-ldexeflags= --cc=x86_64-w64-mingw32-gcc --cxx=x86_64-w64-mingw32-g++ --ar=x86_64-w64-mingw32-gcc-ar --ranlib=x86_64-w64-mingw32-gcc-ranlib --nm=x86_64-w64-mingw32-gcc-nm --extra-version=20241111
  libavutil      59. 46.100 / 59. 46.100
  libavcodec     61. 24.100 / 61. 24.100
  libavformat    61.  9.100 / 61.  9.100
  libavdevice    61.  4.100 / 61.  4.100
  libavfilter    10.  6.101 / 10.  6.101
  libswscale      8.  9.101 /  8.  9.101
  libswresample   5.  4.100 /  5.  4.100
  libpostproc    58.  4.100 / 58.  4.100
Input #0, rawvideo, from 'fd:':
  Duration: N/A, start: 0.000000, bitrate: 61 kb/s
  Stream #0:0: Video: rawvideo (RGBA / 0x41424752), rgba(pc, unknown/bt709/iec61966-2-1), 8x8, 61 kb/s, 30 tbr, 30 tbn
Stream mapping:
  Stream #0:0 -> #0:0 (rawvideo (native) -> h264 (libx264))
[libx264 @ 000002162a9fc2c0] using cpu capabilities: MMX2 SSE2Fast SSSE3 SSE4.2 AVX FMA3 BMI2 AVX2
[libx264 @ 000002162a9fc2c0] profile High, level 1.0, 4:2:0, 8-bit
[libx264 @ 000002162a9fc2c0] 264 - core 164 - H.264/MPEG-4 AVC codec - Copyleft 2003-2024 - http://www.videolan.org/x264.html - options: cabac=1 ref=3 deblock=1:0:0 analyse=0x3:0x113 me=hex subme=7 psy=1 psy_rd=1.00:0.00 mixed_ref=1 me_range=16 chroma_me=1 trellis=1 8x8dct=1 cqm=0 deadzone=21,11 fast_pskip=1 chroma_qp_offset=-2 threads=1 lookahead_threads=1 sliced_threads=0 nr=0 decimate=1 interlaced=0 bluray_compat=0 constrained_intra=0 bframes=3 b_pyramid=2 b_adapt=1 b_bias=0 direct=1 weightb=1 open_gop=0 weightp=2 keyint=250 keyint_min=25 scenecut=40 intra_refresh=0 rc_lookahead=40 rc=crf mbtree=1 crf=18.0 qcomp=0.60 qpmin=0 qpmax=69 qpstep=4 ip_ratio=1.40 aq=1:1.00
Output #0, matroska, to 'C:\WINDOWS\TEMP\audio_mux.tachyon.video.5160517378100.mkv':
  Metadata:
    encoder         : Lavf61.9.100
  Stream #0:0: Video: h264 (H264 / 0x34363248), yuv420p(pc, bt709/bt709/iec61966-2-1, progressive), 8x8, q=2-31, 30 fps, 1k tbn
    Metadata:
      encoder         : Lavc61.24.100 libx264
    Side data:
      cpb: bitrate max/min/avg: 0/0/0 buffer size: 0 vbv_delay: N/A
[out#0/matroska @ 000002162a9e6e00] video:1KiB audio:0KiB subtitle:0KiB other streams:0KiB global headers:0KiB muxing overhead: 93.562232%
frame=    1 fps=0.0 q=24.0 Lsize=       1KiB time=00:00:00.03 bitrate= 324.7kbits/s speed=3.79x    
[libx264 @ 000002162a9fc2c0] frame I:1     Avg QP: 9.00  size:    24
[libx264 @ 000002162a9fc2c0] mb I  I16..4: 100.0%  0.0%  0.0%
[libx264 @ 000002162a9fc2c0] 8x8 transform intra:0.0%
[libx264 @ 000002162a9fc2c0] coded y,uvDC,uvAC intra: 0.0% 100.0% 0.0%
[libx264 @ 000002162a9fc2c0] i16 v,h,dc,p:  0%  0% 100%  0%
[libx264 @ 000002162a9fc2c0] i8c dc,h,v,p: 100%  0%  0%  0%
[libx264 @ 000002162a9fc2c0] kb/s:5.76
ffmpeg version N-117753-g9ec042c1aa-20241111 Copyright (c) 2000-2024 the FFmpeg developers
  built with gcc 14.2.0 (crosstool-NG 1.26.0.120_4d36f27)
  configuration: --prefix=/ffbuild/prefix --pkg-config-flags=--static --pkg-config=pkg-config --cross-prefix=x86_64-w64-mingw32- --arch=x86_64 --target-os=mingw32 --enable-gpl --enable-version3 --disable-debug --disable-w32threads --enable-pthreads --enable-iconv --enable-zlib --enable-libfreetype --enable-libfribidi --enable-gmp --enable-libxml2 --enable-lzma --enable-fontconfig --enable-libharfbuzz --enable-libvorbis --enable-opencl --disable-libpulse --enable-libvmaf --disable-libxcb --disable-xlib --enable-amf --enable-libaom --enable-libaribb24 --enable-avisynth --enable-chromaprint --enable-libdav1d --enable-libdavs2 --enable-libdvdread --enable-libdvdnav --disable-libfdk-aac --enable-ffnvcodec --enable-cuda-llvm --enable-frei0r --enable-libgme --enable-libkvazaar --enable-libaribcaption --enable-libass --enable-libbluray --enable-libjxl --enable-libmp3lame --enable-libopus --enable-librist --enable-libssh --enable-libtheora --enable-libvpx --enable-libwebp --enable-libzmq --enable-lv2 --enable-libvpl --enable-openal --enable-libopencore-amrnb --enable-libopencore-amrwb --enable-libopenh264 --enable-libopenjpeg --enable-libopenmpt --enable-librav1e --enable-librubberband --enable-schannel --enable-sdl2 --enable-libsoxr --enable-libsrt --enable-libsvtav1 --enable-libtwolame --enable-libuavs3d --disable-libdrm --enable-vaapi --enable-libvidstab --enable-vulkan --enable-libshaderc --enable-libplacebo --enable-libvvenc --enable-libx264 --enable-libx265 --enable-libxavs2 --enable-libxvid --enable-libzimg --enable-libzvbi --extra-cflags=-DLIBTWOLAME_STATIC --extra-cxxflags= --extra-libs=-lgomp --extra-ldflags=-pthread --extra-ldexeflags= --cc=x86_64-w64-mingw32-gcc --cxx=x86_64-w64-mingw32-g++ --ar=x86_64-w64-mingw32-gcc-ar --ranlib=x86_64-w64-mingw32-gcc-ranlib --nm=x86_64-w64-mingw32-gcc-nm --extra-version=20241111
  libavutil      59. 46.100 / 59. 46.100
  libavcodec     61. 24.100 / 61. 24.100
  libavformat    61.  9.100 / 61.  9.100
  libavdevice    61.  4.100 / 61.  4.100
  libavfilter    10.  6.101 / 10.  6.101
  libswscale      8.  9.101 /  8.  9.101
  libswresample   5.  4.100 /  5.  4.100
  libpostproc    58.  4.100 / 58.  4.100
[aist#0:0/pcm_f32le @ 0000019714219140] Guessed Channel Layout: stereo
Input #0, f32le, from 'fd:':
  Duration: N/A, bitrate: 3072 kb/s
  Stream #0:0: Audio: pcm_f32le, 48000 Hz, stereo, flt, 3072 kb/s
Stream mapping:
  Stream #0:0 -> #0:0 (pcm_f32le (native) -> pcm_s16le (native))
Output #0, wav, to 'tests/output/frame_sink\audio_mux.tachyon.master_audio.wav':
  Metadata:
    ISFT            : Lavf61.9.100
  Stream #0:0: Audio: pcm_s16le ([1][0][0][0] / 0x0001), 48000 Hz, stereo, s16, 1536 kb/s
    Metadata:
      encoder         : Lavc61.24.100 pcm_s16le
[out#0/wav @ 0000019714207f00] video:0KiB audio:188KiB subtitle:0KiB other streams:0KiB global headers:0KiB muxing overhead: 0.040625%
size=     188KiB time=00:00:01.00 bitrate=1536.6kbits/s speed= 229x    
ffmpeg version N-117753-g9ec042c1aa-20241111 Copyright (c) 2000-2024 the FFmpeg developers
  built with gcc 14.2.0 (crosstool-NG 1.26.0.120_4d36f27)
  configuration: --prefix=/ffbuild/prefix --pkg-config-flags=--static --pkg-config=pkg-config --cross-prefix=x86_64-w64-mingw32- --arch=x86_64 --target-os=mingw32 --enable-gpl --enable-version3 --disable-debug --disable-w32threads --enable-pthreads --enable-iconv --enable-zlib --enable-libfreetype --enable-libfribidi --enable-gmp --enable-libxml2 --enable-lzma --enable-fontconfig --enable-libharfbuzz --enable-libvorbis --enable-opencl --disable-libpulse --enable-libvmaf --disable-libxcb --disable-xlib --enable-amf --enable-libaom --enable-libaribb24 --enable-avisynth --enable-chromaprint --enable-libdav1d --enable-libdavs2 --enable-libdvdread --enable-libdvdnav --disable-libfdk-aac --enable-ffnvcodec --enable-cuda-llvm --enable-frei0r --enable-libgme --enable-libkvazaar --enable-libaribcaption --enable-libass --enable-libbluray --enable-libjxl --enable-libmp3lame --enable-libopus --enable-librist --enable-libssh --enable-libtheora --enable-libvpx --enable-libwebp --enable-libzmq --enable-lv2 --enable-libvpl --enable-openal --enable-libopencore-amrnb --enable-libopencore-amrwb --enable-libopenh264 --enable-libopenjpeg --enable-libopenmpt --enable-librav1e --enable-librubberband --enable-schannel --enable-sdl2 --enable-libsoxr --enable-libsrt --enable-libsvtav1 --enable-libtwolame --enable-libuavs3d --disable-libdrm --enable-vaapi --enable-libvidstab --enable-vulkan --enable-libshaderc --enable-libplacebo --enable-libvvenc --enable-libx264 --enable-libx265 --enable-libxavs2 --enable-libxvid --enable-libzimg --enable-libzvbi --extra-cflags=-DLIBTWOLAME_STATIC --extra-cxxflags= --extra-libs=-lgomp --extra-ldflags=-pthread --extra-ldexeflags= --cc=x86_64-w64-mingw32-gcc --cxx=x86_64-w64-mingw32-g++ --ar=x86_64-w64-mingw32-gcc-ar --ranlib=x86_64-w64-mingw32-gcc-ranlib --nm=x86_64-w64-mingw32-gcc-nm --extra-version=20241111
  libavutil      59. 46.100 / 59. 46.100
  libavcodec     61. 24.100 / 61. 24.100
  libavformat    61.  9.100 / 61.  9.100
  libavdevice    61.  4.100 / 61.  4.100
  libavfilter    10.  6.101 / 10.  6.101
  libswscale      8.  9.101 /  8.  9.101
  libswresample   5.  4.100 /  5.  4.100
  libpostproc    58.  4.100 / 58.  4.100
Input #0, matroska,webm, from 'C:\WINDOWS\TEMP\audio_mux.tachyon.video.5160517378100.mkv':
  Metadata:
    ENCODER         : Lavf61.9.100
  Duration: 00:00:00.03, bitrate: 328 kb/s
  Stream #0:0: Video: h264 (High), yuvj420p(pc, bt709/bt709/iec61966-2-1, progressive), 8x8, 30 fps, 30 tbr, 1k tbn
    Metadata:
      ENCODER         : Lavc61.24.100 libx264
      DURATION        : 00:00:00.033000000
[aist#1:0/pcm_s16le @ 0000027d6f4809c0] Guessed Channel Layout: stereo
Input #1, wav, from 'tests/output/frame_sink\audio_mux.tachyon.master_audio.wav':
  Metadata:
    encoder         : Lavf61.9.100
  Duration: 00:00:01.00, bitrate: 1536 kb/s
  Stream #1:0: Audio: pcm_s16le ([1][0][0][0] / 0x0001), 48000 Hz, stereo, s16, 1536 kb/s
Stream mapping:
  Stream #0:0 -> #0:0 (copy)
  Stream #1:0 -> #0:1 (pcm_s16le (native) -> aac (native))
Press [q] to stop, [?] for help
Output #0, mp4, to 'tests/output/frame_sink/audio_mux.mp4':
  Metadata:
    encoder         : Lavf61.9.100
  Stream #0:0: Video: h264 (High) (avc1 / 0x31637661), yuvj420p(pc, bt709/bt709/iec61966-2-1, progressive), 8x8, q=2-31, 30 fps, 30 tbr, 16k tbn
    Metadata:
      ENCODER         : Lavc61.24.100 libx264
      DURATION        : 00:00:00.033000000
  Stream #0:1: Audio: aac (LC) (mp4a / 0x6134706D), 48000 Hz, stereo, fltp, 128 kb/s
    Metadata:
      encoder         : Lavc61.24.100 aac
[mp4 @ 0000027d6f47de40] Starting second pass: moving the moov atom to the beginning of the file
[out#0/mp4 @ 0000027d6f477b00] video:1KiB audio:0KiB subtitle:0KiB other streams:0KiB global headers:0KiB muxing overhead: 196.982167%
frame=    1 fps=0.0 q=-1.0 Lsize=       2KiB time=N/A bitrate=N/A speed=N/A    
[aac @ 0000027d6f4b4300] Qavg: 65536.000
[OK] frame_output_sink
[RUN] tile_scheduler
[OK] tile_scheduler
[RUN] render_contract
[OK] render_contract
[RUN] scene_evaluator
[OK] scene_evaluator
[RUN] render_session
[OK] render_session
[RUN] render_batch
[OK] render_batch
[RUN] parallax_cards
[OK] parallax_cards
[RUN] timeline
[OK] timeline
[RUN] glyph_cache
[OK] glyph_cache
[RUN] text
[OK] text
[RUN] effect_host
[OK] effect_host
[RUN] precomp_mask
[OK] precomp_mask
[RUN] scene_spec
ffmpeg version N-117753-g9ec042c1aa-20241111 Copyright (c) 2000-2024 the FFmpeg developers
  built with gcc 14.2.0 (crosstool-NG 1.26.0.120_4d36f27)
  configuration: --prefix=/ffbuild/prefix --pkg-config-flags=--static --pkg-config=pkg-config --cross-prefix=x86_64-w64-mingw32- --arch=x86_64 --target-os=mingw32 --enable-gpl --enable-version3 --disable-debug --disable-w32threads --enable-pthreads --enable-iconv --enable-zlib --enable-libfreetype --enable-libfribidi --enable-gmp --enable-libxml2 --enable-lzma --enable-fontconfig --enable-libharfbuzz --enable-libvorbis --enable-opencl --disable-libpulse --enable-libvmaf --disable-libxcb --disable-xlib --enable-amf --enable-libaom --enable-libaribb24 --enable-avisynth --enable-chromaprint --enable-libdav1d --enable-libdavs2 --enable-libdvdread --enable-libdvdnav --disable-libfdk-aac --enable-ffnvcodec --enable-cuda-llvm --enable-frei0r --enable-libgme --enable-libkvazaar --enable-libaribcaption --enable-libass --enable-libbluray --enable-libjxl --enable-libmp3lame --enable-libopus --enable-librist --enable-libssh --enable-libtheora --enable-libvpx --enable-libwebp --enable-libzmq --enable-lv2 --enable-libvpl --enable-openal --enable-libopencore-amrnb --enable-libopencore-amrwb --enable-libopenh264 --enable-libopenjpeg --enable-libopenmpt --enable-librav1e --enable-librubberband --enable-schannel --enable-sdl2 --enable-libsoxr --enable-libsrt --enable-libsvtav1 --enable-libtwolame --enable-libuavs3d --disable-libdrm --enable-vaapi --enable-libvidstab --enable-vulkan --enable-libshaderc --enable-libplacebo --enable-libvvenc --enable-libx264 --enable-libx265 --enable-libxavs2 --enable-libxvid --enable-libzimg --enable-libzvbi --extra-cflags=-DLIBTWOLAME_STATIC --extra-cxxflags= --extra-libs=-lgomp --extra-ldflags=-pthread --extra-ldexeflags= --cc=x86_64-w64-mingw32-gcc --cxx=x86_64-w64-mingw32-g++ --ar=x86_64-w64-mingw32-gcc-ar --ranlib=x86_64-w64-mingw32-gcc-ranlib --nm=x86_64-w64-mingw32-gcc-nm --extra-version=20241111
  libavutil      59. 46.100 / 59. 46.100
  libavcodec     61. 24.100 / 61. 24.100
  libavformat    61.  9.100 / 61.  9.100
  libavdevice    61.  4.100 / 61.  4.100
  libavfilter    10.  6.101 / 10.  6.101
  libswscale      8.  9.101 /  8.  9.101
  libswresample   5.  4.100 /  5.  4.100
  libpostproc    58.  4.100 / 58.  4.100
Input #0, rawvideo, from 'fd:':
  Duration: N/A, start: 0.000000, bitrate: 1990656 kb/s
  Stream #0:0: Video: rawvideo (RGBA / 0x41424752), rgba(tv, unknown/bt709/bt709), 1920x1080, 1990656 kb/s, 30 tbr, 30 tbn
Stream mapping:
  Stream #0:0 -> #0:0 (rawvideo (native) -> h264 (libx264))
[libx264 @ 0000018f9eebde40] using cpu capabilities: MMX2 SSE2Fast SSSE3 SSE4.2 AVX FMA3 BMI2 AVX2
[libx264 @ 0000018f9eebde40] profile High, level 4.0, 4:2:0, 8-bit
[libx264 @ 0000018f9eebde40] 264 - core 164 - H.264/MPEG-4 AVC codec - Copyleft 2003-2024 - http://www.videolan.org/x264.html - options: cabac=1 ref=3 deblock=1:0:0 analyse=0x3:0x113 me=hex subme=7 psy=1 psy_rd=1.00:0.00 mixed_ref=1 me_range=16 chroma_me=1 trellis=1 8x8dct=1 cqm=0 deadzone=21,11 fast_pskip=1 chroma_qp_offset=-2 threads=24 lookahead_threads=4 sliced_threads=0 nr=0 decimate=1 interlaced=0 bluray_compat=0 constrained_intra=0 bframes=3 b_pyramid=2 b_adapt=1 b_bias=0 direct=1 weightb=1 open_gop=0 weightp=2 keyint=250 keyint_min=25 scenecut=40 intra_refresh=0 rc_lookahead=40 rc=crf mbtree=1 crf=18.0 qcomp=0.60 qpmin=0 qpmax=69 qpstep=4 ip_ratio=1.40 aq=1:1.00
Output #0, mp4, to 'out/intro.mp4':
  Metadata:
    encoder         : Lavf61.9.100
  Stream #0:0: Video: h264 (avc1 / 0x31637661), yuv420p(tv, bt709, progressive), 1920x1080, q=2-31, 30 fps, 15360 tbn
    Metadata:
      encoder         : Lavc61.24.100 libx264
    Side data:
      cpb: bitrate max/min/avg: 0/0/0 buffer size: 0 vbv_delay: N/A
frame=    0 fps=0.0 q=0.0 size=       0KiB time=N/A bitrate=N/A speed=N/A    frame=    0 fps=0.0 q=0.0 size=       0KiB time=N/A bitrate=N/A speed=N/A    frame=    0 fps=0.0 q=0.0 size=       0KiB time=N/A bitrate=N/A speed=N/A    frame=    0 fps=0.0 q=0.0 size=       0KiB time=N/A bitrate=N/A speed=N/A    frame=    0 fps=0.0 q=0.0 size=       0KiB time=N/A bitrate=N/A speed=N/A    frame=    0 fps=0.0 q=0.0 size=       0KiB time=N/A bitrate=N/A speed=N/A    frame=    0 fps=0.0 q=0.0 size=       0KiB time=N/A bitrate=N/A speed=N/A    frame=    0 fps=0.0 q=0.0 size=       0KiB time=N/A bitrate=N/A speed=N/A    frame=    0 fps=0.0 q=0.0 size=       0KiB time=N/A bitrate=N/A speed=N/A    frame=    0 fps=0.0 q=0.0 size=       0KiB time=N/A bitrate=N/A speed=N/A    frame=    0 fps=0.0 q=0.0 size=       0KiB time=N/A bitrate=N/A speed=N/A    frame=    0 fps=0.0 q=0.0 size=       0KiB time=N/A bitrate=N/A speed=N/A    frame=    0 fps=0.0 q=0.0 size=       0KiB time=N/A bitrate=N/A speed=N/A    frame=    0 fps=0.0 q=0.0 size=       0KiB time=N/A bitrate=N/A speed=N/A    frame=    0 fps=0.0 q=0.0 size=       0KiB time=N/A bitrate=N/A speed=N/A    frame=    0 fps=0.0 q=0.0 size=       0KiB time=N/A bitrate=N/A speed=N/A    frame=    0 fps=0.0 q=0.0 size=       0KiB time=N/A bitrate=N/A speed=N/A    frame=    0 fps=0.0 q=0.0 size=       0KiB time=N/A bitrate=N/A speed=N/A    frame=    0 fps=0.0 q=0.0 size=       0KiB time=N/A bitrate=N/A speed=N/A    frame=    0 fps=0.0 q=0.0 size=       0KiB time=N/A bitrate=N/A speed=N/A    frame=    0 fps=0.0 q=0.0 size=       0KiB time=N/A bitrate=N/A speed=N/A    frame=    0 fps=0.0 q=0.0 size=       0KiB time=N/A bitrate=N/A speed=N/A    frame=    0 fps=0.0 q=0.0 size=       0KiB time=N/A bitrate=N/A speed=N/A    frame=    0 fps=0.0 q=0.0 size=       0KiB time=N/A bitrate=N/A speed=N/A    frame=    0 fps=0.0 q=0.0 size=       0KiB time=N/A bitrate=N/A speed=N/A    frame=    0 fps=0.0 q=0.0 size=       0KiB time=N/A bitrate=N/A speed=N/A    frame=    0 fps=0.0 q=0.0 size=       0KiB time=N/A bitrate=N/A speed=N/A    frame=    0 fps=0.0 q=0.0 size=       0KiB time=N/A bitrate=N/A speed=N/A    frame=    0 fps=0.0 q=0.0 size=       0KiB time=N/A bitrate=N/A speed=N/A    frame=    0 fps=0.0 q=0.0 size=       0KiB time=N/A bitrate=N/A speed=N/A    [mp4 @ 0000018f9eebb9c0] Starting second pass: moving the moov atom to the beginning of the file
[out#0/mp4 @ 0000018f9eea55c0] video:3KiB audio:0KiB subtitle:0KiB other streams:0KiB global headers:0KiB muxing overhead: 41.559346%
frame=   26 fps=1.7 q=-1.0 Lsize=       4KiB time=00:00:00.80 bitrate=  40.7kbits/s speed=0.0509x    
[libx264 @ 0000018f9eebde40] frame I:1     Avg QP: 5.00  size:   430
[libx264 @ 0000018f9eebde40] frame P:7     Avg QP: 6.14  size:    76
[libx264 @ 0000018f9eebde40] frame B:18    Avg QP: 8.67  size:    69
[libx264 @ 0000018f9eebde40] consecutive B-frames:  7.7%  0.0%  0.0% 92.3%
[libx264 @ 0000018f9eebde40] mb I  I16..4: 100.0%  0.0%  0.0%
[libx264 @ 0000018f9eebde40] mb P  I16..4:  0.0%  0.0%  0.0%  P16..4:  0.0%  0.0%  0.0%  0.0%  0.0%    skip:100.0%
[libx264 @ 0000018f9eebde40] mb B  I16..4:  0.0%  0.0%  0.0%  B16..8:  0.0%  0.0%  0.0%  direct: 0.0%  skip:100.0%
[libx264 @ 0000018f9eebde40] 8x8 transform intra:0.0%
[libx264 @ 0000018f9eebde40] coded y,uvDC,uvAC intra: 0.0% 0.0% 0.0% inter: 0.0% 0.0% 0.0%
[libx264 @ 0000018f9eebde40] i16 v,h,dc,p: 99%  0%  1%  0%
[libx264 @ 0000018f9eebde40] i8c dc,h,v,p: 100%  0%  0%  0%
[libx264 @ 0000018f9eebde40] Weighted P-Frames: Y:0.0% UV:0.0%
[libx264 @ 0000018f9eebde40] kb/s:20.28
